<?xml version="1.0" encoding="UTF-8"?>
<svg id="Layer_2" data-name="Layer 2" xmlns="http://www.w3.org/2000/svg" width="2284.74" height="477.69" viewBox="0 0 2284.74 477.69">
  <g id="Layer_1-2" data-name="Layer 1">
    <g>
      <g>
        <path d="M460.26,375.37V102.29h84.17c86.1,0,134.61,49.15,134.61,136.54s-47.87,136.55-131.72,136.55h-87.07ZM500.42,142.44v192.77h46.91c57.51,0,91.24-35.66,91.24-96.38s-33.73-96.38-94.13-96.38h-44.01Z" fill="#284b63"/>
        <path d="M857.39,343.89c-8.35,19.59-34.38,33.41-61.36,33.41-55.58,0-91.88-39.2-91.88-98.64s35.98-98.3,91.88-98.3c26.67,0,53.01,13.81,61.36,33.73v-31.49h40.16v192.77h-40.16v-31.49ZM801.17,337.15c33.41,0,56.54-23.46,56.22-58.16,0-34.37-23.77-58.47-56.54-58.47s-56.54,23.13-56.54,58.15,23.13,58.48,56.87,58.48Z" fill="#284b63"/>
        <path d="M1030.92,394.65c-15.1,38.88-22.49,56.87-64.9,56.87h-13.17v-39.52h9.64c12.85,0,20.88-4.5,27.31-21.2l5.78-15.42-74.54-192.77h42.73l53.33,137.51,53.33-137.51h42.73l-82.25,212.04Z" fill="#284b63"/>
        <path d="M1133.44,375.37V102.29h40.16v169.95l76.14-89.63h44.34l-76.14,96.38,83.21,96.38h-51.4l-76.14-89.63v89.63h-40.16Z" fill="#284b63"/>
        <path d="M1486.23,316.26c-13.17,35.98-47.23,60.73-85.78,60.73-55.58,0-94.78-40.81-94.78-98.64s40.48-98.31,93.81-98.31,93.81,42.08,93.81,97.34c0,5.14-.32,10.61-1.29,15.42h-144.9c5.14,27.96,25.7,46.26,53.01,46.26,19.92,0,35.98-9.31,43.37-22.81h42.73ZM1451.85,263.57c-5.14-26.99-25.7-45.62-52.37-45.62s-46.91,18.31-52.37,45.62h104.74Z" fill="#284b63"/>
        <path d="M1700.55,316.26c-13.17,35.98-47.23,60.73-85.78,60.73-55.58,0-94.78-40.81-94.78-98.64s40.48-98.31,93.81-98.31,93.81,42.08,93.81,97.34c0,5.14-.32,10.61-1.29,15.42h-144.9c5.14,27.96,25.7,46.26,53.01,46.26,19.92,0,35.98-9.31,43.37-22.81h42.73ZM1666.18,263.57c-5.14-26.99-25.7-45.62-52.37-45.62s-46.91,18.31-52.37,45.62h104.74Z" fill="#284b63"/>
        <path d="M1777.7,214.09c8.35-19.59,34.38-33.41,61.36-33.41,55.58,0,91.88,39.2,91.88,98.64s-35.98,98.3-91.88,98.3c-26.67,0-53.01-13.81-61.36-33.73v111.8h-40.16V182.61h40.16v31.49ZM1833.92,220.84c-33.41,0-56.54,23.46-56.22,58.16,0,34.37,23.77,58.47,56.54,58.47s56.54-23.13,56.54-58.15-23.13-58.48-56.87-58.48Z" fill="#284b63"/>
        <path d="M2136.27,316.26c-13.17,35.98-47.23,60.73-85.78,60.73-55.58,0-94.78-40.81-94.78-98.64s40.48-98.31,93.81-98.31,93.81,42.08,93.81,97.34c0,5.14-.32,10.61-1.29,15.42h-144.9c5.14,27.96,25.7,46.26,53.01,46.26,19.92,0,35.98-9.31,43.37-22.81h42.73ZM2101.9,263.57c-5.14-26.99-25.7-45.62-52.37-45.62s-46.91,18.31-52.37,45.62h104.74Z" fill="#284b63"/>
        <path d="M2284.74,220.52c-45.62-.32-71.32,22.16-71.32,62.65v92.2h-40.16v-192.77h40.16v35.66c14.78-27.95,44.66-37.9,71.32-37.9v40.15Z" fill="#284b63"/>
      </g>
      <g>
        <path d="M323.89,381.37c-2.3-19.56-11.96-37.6-25.92-51.55l-91.03-90.92-44.6,44.6,92.43,92.54c4.29,4.29,6.67,9.89,6.67,15.94s-2.38,11.68-6.67,15.94c-4.26,4.29-9.95,6.56-15.94,6.56H85.75c-6.08,0-11.68-2.27-15.94-6.56-4.29-4.26-6.64-9.95-6.64-15.94s2.35-11.66,6.64-15.94l92.46-92.54-44.63-44.69-92.43,92.54C8.95,347.5.04,369.04.04,391.99c0,26.39,11.85,51.08,33.12,67.69,15.58,12.13,35.02,18.01,54.77,18.01h150.9v-.08c22.97,0,44.52-8.83,60.66-25.05,18.6-18.72,27.63-44.44,24.4-71.19Z" fill="#6eb5ff"/>
        <path d="M291.42,17.96C275.87,5.8,256.32,0,236.65,0H85.75c-11.49,0-22.58,2.19-32.92,6.47-10.25,4.26-19.67,10.53-27.74,18.69C6.49,43.76-2.5,69.57.6,96.35c2.38,19.56,12.08,37.49,26.03,51.44l91,91.03,44.63-44.63-92.46-92.54c-4.29-4.26-6.64-9.95-6.64-15.94s2.35-11.66,6.64-15.94c4.26-4.26,9.86-6.56,15.94-6.56h151.4c.56-.06,1.12-.08,1.68-.08,6,0,11.68,2.38,15.94,6.64,4.29,4.29,6.67,9.97,6.67,15.94s-2.38,11.68-6.67,15.94l-92.51,92.54,44.69,44.72,92.46-92.54c16.22-16.14,25.13-37.68,25.13-60.66,0-26.48-11.94-51.05-33.12-67.75Z" fill="#6eb5ff"/>
      </g>
    </g>
  </g>
</svg>