<?xml version="1.0" encoding="UTF-8"?>
<svg id="Layer_2" data-name="Layer 2" xmlns="http://www.w3.org/2000/svg" width="921" height="1355.63" viewBox="0 0 921 1355.63">
  <g id="Layer_1-2" data-name="Layer 1">
    <g>
      <path d="M919.17,1082.28c-6.52-55.5-33.95-106.7-73.55-146.3l-258.33-258.01-126.58,126.58,262.3,262.62c12.17,12.17,18.93,28.07,18.93,45.24s-6.76,33.16-18.93,45.24c-12.08,12.17-28.22,18.61-45.24,18.61H243.34c-17.26,0-33.16-6.44-45.24-18.61-12.17-12.09-18.84-28.23-18.84-45.24s6.68-33.08,18.84-45.24l262.38-262.62-126.66-126.82L71.52,940.35C25.41,986.15.12,1047.29.12,1112.41c0,74.9,33.63,144.95,93.98,192.09,44.2,34.43,99.39,51.12,155.44,51.12h428.23v-.24c65.2,0,126.34-25.05,172.14-71.08,52.8-53.11,78.4-126.1,69.26-202.03Z" fill="#6eb5ff"/>
      <path d="M827.02,50.97C782.89,16.46,727.4,0,671.58,0H243.34c-32.6,0-64.08,6.2-93.42,18.37-29.1,12.09-55.82,29.9-78.71,53.03C18.41,124.19-7.11,197.42,1.72,273.43c6.76,55.5,34.27,106.38,73.86,145.98l258.25,258.32,126.66-126.66L198.1,288.46c-12.17-12.09-18.84-28.23-18.84-45.24s6.68-33.08,18.84-45.24c12.08-12.09,27.98-18.6,45.24-18.6h429.66c1.59-.16,3.18-.24,4.77-.24,17.02,0,33.16,6.76,45.24,18.84,12.17,12.17,18.93,28.31,18.93,45.24s-6.76,33.16-18.93,45.24l-262.54,262.62,126.81,126.9,262.38-262.62c46.04-45.8,71.32-106.94,71.32-172.14,0-75.14-33.87-144.87-93.98-192.25Z" fill="#6eb5ff"/>
    </g>
  </g>
</svg>